<svg xmlns="http://www.w3.org/2000/svg" xmlns:xlink="http://www.w3.org/1999/xlink" width="208" height="196">
    <defs>
        <linearGradient id="b" x1="98.8329017%" x2="0%" y1="49.786863%" y2="50.2762802%">
            <stop offset="0%" stop-color="#B1B1B1" />
            <stop offset="100%" stop-color="#FFF" />
        </linearGradient>
        <path id="a" d="M28.4 183.36c-.1120006-.288001-.2359993-.559999-.372-.816-.1360007-.256001-.3119989-.483999-.528-.684-.2160011-.200001-.4919983-.359999-.828-.48-.3360017-.120001-.7519975-.18-1.248-.18h-2.472v11.112c0 .592003.0519995 1.063998.156 1.416.1040005.352002.2239993.619999.36.804.1360007.184001.2719993.308.408.372.1360007.064.2359997.096.3.096h-5.952c.0480002 0 .1399993-.028.276-.084.1360007-.056.2759993-.175999.42-.36.1440007-.184001.2679995-.451998.372-.804.1040005-.352002.156-.831997.156-1.44V181.2h-2.904c-.4160021 0-.7559987.059999-1.02.18s-.4879991.279999-.672.48c-.1840009.200001-.3399994.431999-.468.696-.1280006.264001-.2559994.531999-.384.804.0800004-.720004.1479997-1.439996.204-2.16.0560003-.720004.1159997-1.447996.18-2.184H28.04l.36 4.344zm13.016-.12c-.0800004-.208001-.1799994-.431999-.3-.672-.1200006-.240001-.2919989-.459999-.516-.66-.2240011-.200001-.5119982-.367999-.864-.504-.3520018-.136001-.7919974-.204-1.32-.204H35.44v4.632h2.592c.4160021 0 .7479988-.04.996-.12.2480012-.08.4399993-.171999.576-.276.1360007-.104001.2279998-.204.276-.3.0480002-.096.072-.16.072-.192v3.96c0-.032-.0239998-.096-.072-.192-.0480002-.096-.1399993-.196-.276-.3-.1360007-.104001-.3279988-.196-.576-.276-.2480012-.08-.571998-.12-.972-.12H35.44v4.368c0 .576003.0519995 1.031998.156 1.368.1040005.336002.2239993.595999.36.78.1360007.184001.2719993.308.408.372.1360007.064.2359997.096.3.096h-5.976c.0480002 0 .1439993-.028.288-.084.1440007-.056.2919992-.175999.444-.36s.2879994-.451998.408-.804c.1200006-.352002.18-.839997.18-1.464v-10.632c0-.576003-.0679993-1.031998-.204-1.368-.1360007-.336002-.2879992-.595999-.456-.78-.1680008-.184001-.3319992-.308-.492-.372s-.2719997-.104-.336-.12h10.896v4.224zm16.712.12c-.1120006-.288001-.2359993-.559999-.372-.816-.1360007-.256001-.3119989-.483999-.528-.684-.2160011-.200001-.4919983-.359999-.828-.48-.3360017-.120001-.7519975-.18-1.248-.18H52.68v11.112c0 .592003.0519995 1.063998.156 1.416.1040005.352002.2239993.619999.36.804.1360007.184001.2719993.308.408.372.1360007.064.2359997.096.3.096h-5.952c.0480002 0 .1399993-.028.276-.084.1360007-.056.2759993-.175999.42-.36.1440007-.184001.2679995-.451998.372-.804.1040005-.352002.156-.831997.156-1.44V181.2h-2.904c-.4160021 0-.7559987.059999-1.02.18s-.4879991.279999-.672.48c-.1840009.200001-.3399994.431999-.468.696-.1280006.264001-.2559994.531999-.384.804.0800004-.720004.1479997-1.439996.204-2.16.0560003-.720004.1159997-1.447996.18-2.184h13.656l.36 4.344zm19.192 7.2c0 .784004-.1559984 1.471997-.468 2.064-.3120016.592003-.7359973 1.091998-1.272 1.5s-1.1759963.715999-1.92.924c-.7440037.208001-1.5479957.312-2.412.312-.8960045 0-1.7639958-.107999-2.604-.324-.8400042-.216001-1.5479971-.507998-2.124-.876v-4.536c.2880014.640003.6159982 1.171998.984 1.596.3680018.424002.755998.767999 1.164 1.032.408002.264001.8359978.451999 1.284.564.4480022.112001.9119976.168 1.392.168.7360037 0 1.3679974-.159998 1.896-.48s.792-.767997.792-1.344c0-.432002-.1239988-.803998-.372-1.116-.2480012-.312002-.571998-.595999-.972-.852-.400002-.256001-.8519975-.499999-1.356-.732-.5040025-.232001-1.0039975-.483999-1.5-.756-.4160021-.208001-.819998-.443999-1.212-.708-.392002-.264001-.7359985-.563998-1.032-.9-.2960015-.336002-.5359991-.719998-.72-1.152-.1840009-.432002-.276-.927997-.276-1.488 0-.784004.1519985-1.475997.456-2.076.3040015-.600003.7119974-1.099998 1.224-1.5.5120026-.400002 1.1159965-.7 1.812-.9.6960035-.200001 1.443996-.3 2.244-.3.7680038 0 1.5079964.103999 2.22.312.7120036.208001 1.2839978.463998 1.716.768v3.816c-.1600008-.288001-.3759986-.583998-.648-.888s-.5879982-.579999-.948-.828c-.3600018-.248001-.7559978-.451999-1.188-.612-.4320022-.160001-.8879976-.24-1.368-.24-.8160041 0-1.4159981.167998-1.8.504-.3840019.336002-.576.751998-.576 1.248 0 .320002.0839992.607999.252.864.1680008.256001.3919986.487999.672.696.2800014.208001.6079981.403999.984.588.376.184001.7719979.371999 1.188.564.5280026.240001 1.0599973.503999 1.596.792.5360027.288001 1.0199978.627998 1.452 1.02.4320022.392002.7799987.851997 1.044 1.38.2640013.528003.396 1.159996.396 1.896zm12.704-10.632c0-.176001-.0279997-.323999-.084-.444-.0560003-.120001-.1199996-.212-.192-.276-.0720004-.064-.1479996-.112-.228-.144-.0800004-.032-.1359998-.048-.168-.048h5.208c-.0160001 0-.0839994.028-.204.084-.1200006.056-.283999.179999-.492.372s-.4599985.471998-.756.84c-.2960015.368002-.6279982.871997-.996 1.512l-3.84 6.456v4.032c0 .592003.0519995 1.063998.156 1.416.1040005.352002.2279993.619999.372.804.1440007.184001.2799994.308.408.372.1280006.064.2159998.096.264.096h-5.928c.0480002 0 .1399993-.028.276-.084.1360007-.056.2759993-.171999.42-.348.1440007-.176001.2719994-.443998.384-.804.1120006-.360002.168-.843997.168-1.452V188.4l-3.768-6.624c-.3520018-.608003-.6719986-1.091998-.96-1.452-.2880014-.360002-.5399989-.635999-.756-.828-.2160011-.192001-.3919993-.316-.528-.372-.1360007-.056-.2279998-.092-.276-.108h6.456c-.0320002 0-.0919996.012-.18.036-.0880004.024-.1719996.072-.252.144s-.1519997.167999-.216.288c-.0640003.120001-.096.275999-.096.468 0 .192001.0479995.423999.144.696.0960005.272001.2559989.607998.48 1.008l2.28 3.96 2.04-3.528c.3040015-.528003.5239993-.963998.66-1.308.1360007-.344002.204-.627999.204-.852zm18.08 1.728c0-.576003-.059999-1.035998-.18-1.38-.120001-.344002-.255999-.607999-.408-.792-.152001-.184001-.299999-.304-.444-.36-.144001-.056-.24-.092-.288-.108h5.208c-.048 0-.139999.028-.276.084-.136001.056-.275999.175999-.42.36s-.271999.447998-.384.792c-.112001.344002-.168.811997-.168 1.404V195h-2.496c-.144001-.352002-.327999-.751998-.552-1.2-.208001-.368002-.471998-.811997-.792-1.332-.320002-.520003-.727998-1.083997-1.224-1.692l-5.352-6.528v8.136c0 .576003.063999 1.035998.192 1.38.128001.344002.275999.603999.444.78.168001.176001.327999.296.48.36s.26.096.324.096H96.44c.0480002 0 .1359994-.028.264-.084.1280006-.056.2639993-.171999.408-.348.1440007-.176001.2719994-.435998.384-.78.1120006-.344002.168-.811997.168-1.404v-10.536c0-.464002-.103999-.867998-.312-1.212-.208001-.344002-.4439987-.631999-.708-.864-.2640013-.232001-.5119988-.411999-.744-.54-.2320012-.128001-.3719998-.2-.42-.216h5.088l7.536 9.432v-6.792zM125.392 195h-10.968c.048 0 .139999-.032.276-.096s.279999-.191999.432-.384.287999-.475998.408-.852c.120001-.376002.18-.883997.18-1.524v-10.44c0-.576003-.067999-1.039998-.204-1.392-.136001-.352002-.287999-.619999-.456-.804-.168001-.184001-.331999-.308-.492-.372s-.272-.104-.336-.12h10.872v4.272c-.08-.272-.183999-.531999-.312-.78-.128001-.248001-.299999-.467999-.516-.66-.216001-.192001-.495998-.347999-.84-.468-.344002-.120001-.763998-.18-1.26-.18h-3.024v4.632h2.64c.400002 0 .723999-.036.972-.108.248001-.072.439999-.156.576-.252.136001-.096.228-.188.276-.276.048-.088.08-.148.096-.18v3.792c0-.016-.02-.068-.06-.156-.04-.088-.123999-.18-.252-.276-.128001-.096-.315999-.18-.564-.252-.248001-.072-.579998-.108-.996-.108h-2.688v4.776h3.264c.512003 0 .955998-.04 1.332-.12.376002-.08.703999-.211999.984-.396.280001-.184001.531999-.415999.756-.696.224001-.280001.447999-.627998.672-1.044l-.768 4.464zm14.984-1.8c.224001.400002.447999.715999.672.948.224001.232001.431999.411999.624.54.192001.128001.355999.212.492.252.136001.04.236.06.3.06h-4.872l-2.664-4.92c-.288001-.544003-.543999-.907999-.768-1.092-.224001-.184001-.495998-.276-.816-.276h-.336v3.624c0 .592003.055999 1.059998.168 1.404.112001.344002.235999.607999.372.792.136001.184001.271999.308.408.372.136001.064.228.096.276.096h-5.784c.048 0 .139999-.028.276-.084.136001-.056.275999-.171999.42-.348.144001-.176001.275999-.439998.396-.792.120001-.352002.18-.831997.18-1.44V181.8c0-.608003-.067999-1.091998-.204-1.452-.136001-.360002-.287999-.635999-.456-.828-.168001-.192001-.331999-.32-.492-.384s-.264-.104-.312-.12h7.032c.944005 0 1.767996.131999 2.472.396.704004.264001 1.291998.615998 1.764 1.056.472002.440002.827999.939997 1.068 1.5.240001.560003.36 1.135997.36 1.728 0 .544003-.087999 1.063998-.264 1.56-.176001.496002-.427998.943998-.756 1.344-.328002.400002-.735998.731999-1.224.996-.488002.264001-1.043997.436-1.668.516.416002.256001.815998.719997 1.2 1.392l2.136 3.696zm-2.856-9.408c0-.336002-.059999-.659998-.18-.972s-.299999-.587999-.54-.828c-.240001-.240001-.539998-.431999-.9-.576-.360002-.144001-.779998-.216-1.26-.216h-1.656v5.352h1.68c.512003 0 .947998-.075999 1.308-.228.360002-.152001.655999-.355999.888-.612s.399999-.551998.504-.888c.104001-.336002.156-.679998.156-1.032zm17.048 6.312c0-.496002-.063999-.895998-.192-1.2s-.275999-.535999-.444-.696c-.168001-.160001-.323999-.268-.468-.324-.144001-.056-.24-.084-.288-.084h6.024c-.048 0-.139999.028-.276.084-.136001.056-.283999.159999-.444.312s-.299999.375999-.42.672c-.120001.296001-.18.683998-.18 1.164v4.392c-.800004.320002-1.719995.559999-2.76.72-1.040005.160001-2.023995.24-2.952.24-1.344007 0-2.523995-.223998-3.54-.672-1.016005-.448002-1.859997-1.043996-2.532-1.788-.672003-.744004-1.179998-1.595995-1.524-2.556-.344002-.960005-.516-1.951995-.516-2.976 0-1.104006.187998-2.179995.564-3.228.376002-1.048005.939996-1.979996 1.692-2.796.752004-.816004 1.691994-1.471998 2.82-1.968 1.128006-.496002 2.451992-.744 3.972-.744 1.232006 0 2.235996.119999 3.012.36.776004.240001 1.315998.439999 1.62.6v4.152c-.176001-.336002-.403999-.663998-.684-.984-.280001-.320002-.619998-.611999-1.02-.876-.400002-.264001-.863997-.475999-1.392-.636-.528003-.160001-1.119997-.24-1.776-.24-.752004 0-1.447997.143999-2.088.432-.640003.288001-1.187998.692-1.644 1.212-.456002.520003-.811999 1.143996-1.068 1.872-.256001.728004-.384 1.531996-.384 2.412s.127999 1.687996.384 2.424c.256001.736004.607998 1.367997 1.056 1.896s.983997.939999 1.608 1.236c.624003.296001 1.303996.444 2.04.444.368002 0 .695999-.032.984-.096.288001-.064.559999-.136.816-.216v-2.544zm11.576 2.424c0 .544003.055999.975998.168 1.296.112001.320002.235999.567999.372.744.136001.176001.271999.292.408.348.136001.056.228.084.276.084h-5.88c.048 0 .139999-.024.276-.072.136001-.048.275999-.155999.42-.324s.271999-.415998.384-.744c.112001-.328002.168-.771997.168-1.332v-10.92c0-.560003-.055999-1.007998-.168-1.344-.112001-.336002-.239999-.595999-.384-.78-.144001-.184001-.283999-.304-.42-.36-.136001-.056-.228-.092-.276-.108h5.904c-.032 0-.115999.028-.252.084-.136001.056-.275999.171999-.42.348-.144001.176001-.275999.435998-.396.78-.120001.344002-.18.803997-.18 1.38v10.92zM180.84 195h-10.968c.048 0 .139999-.032.276-.096s.279999-.191999.432-.384.287999-.475998.408-.852c.120001-.376002.18-.883997.18-1.524v-10.44c0-.576003-.067999-1.039998-.204-1.392-.136001-.352002-.287999-.619999-.456-.804-.168001-.184001-.331999-.308-.492-.372s-.272-.104-.336-.12h10.872v4.272c-.08-.272-.183999-.531999-.312-.78-.128001-.248001-.299999-.467999-.516-.66-.216001-.192001-.495998-.347999-.84-.468-.344002-.120001-.763998-.18-1.26-.18H174.6v4.632h2.64c.400002 0 .723999-.036.972-.108.248001-.072.439999-.156.576-.252.136001-.096.228-.188.276-.276.048-.088.08-.148.096-.18v3.792c0-.016-.02-.068-.06-.156-.04-.088-.123999-.18-.252-.276-.128001-.096-.315999-.18-.564-.252-.248001-.072-.579998-.108-.996-.108H174.6v4.776h3.264c.512003 0 .955998-.04 1.332-.12.376002-.08.703999-.211999.984-.396.280001-.184001.531999-.415999.756-.696.224001-.280001.447999-.627998.672-1.044L180.84 195zm14.024-4.44c0 .784004-.155998 1.471997-.468 2.064-.312002.592003-.735997 1.091998-1.272 1.5s-1.175996.715999-1.92.924c-.744004.208001-1.547996.312-2.412.312-.896004 0-1.763996-.107999-2.604-.324-.840004-.216001-1.547997-.507998-2.124-.876v-4.536c.288001.640003.615998 1.171998.984 1.596.368002.424002.755998.767999 1.164 1.032.408002.264001.835998.451999 1.284.564.448002.112001.911998.168 1.392.168.736004 0 1.367997-.159998 1.896-.48s.792-.767997.792-1.344c0-.432002-.123999-.803998-.372-1.116-.248001-.312002-.571998-.595999-.972-.852-.400002-.256001-.851997-.499999-1.356-.732-.504003-.232001-1.003998-.483999-1.5-.756-.416002-.208001-.819998-.443999-1.212-.708-.392002-.264001-.735999-.563998-1.032-.9-.296001-.336002-.535999-.719998-.72-1.152-.184001-.432002-.276-.927997-.276-1.488 0-.784004.151998-1.475997.456-2.076.304002-.600003.711997-1.099998 1.224-1.5.512003-.400002 1.115997-.7 1.812-.9.696003-.200001 1.443996-.3 2.244-.3.768004 0 1.507996.103999 2.22.312.712004.208001 1.283998.463998 1.716.768v3.816c-.160001-.288001-.375999-.583998-.648-.888s-.587998-.579999-.948-.828c-.360002-.248001-.755998-.451999-1.188-.612s-.887998-.24-1.368-.24c-.816004 0-1.415998.167998-1.8.504-.384002.336002-.576.751998-.576 1.248 0 .320002.083999.607999.252.864.168001.256001.391999.487999.672.696.280001.208001.607998.403999.984.588.376.184001.771998.371999 1.188.564.528003.240001 1.059997.503999 1.596.792.536003.288001 1.019998.627998 1.452 1.02.432002.392002.779999.851997 1.044 1.38.264001.528003.396 1.159996.396 1.896z" />
        <linearGradient id="c" x1="98.8360431%" x2=".09148346%" y1="81.4808711%" y2="17.8277871%">
            <stop offset="0%" stop-color="#67502D" />
            <stop offset="99.9815245%" stop-color="#D8A75B" />
        </linearGradient>
    </defs>
    <g fill="none" fill-rule="evenodd">
        <g fill-rule="nonzero">
            <use fill="#FFF" xlink:href="#a" />
            <use fill="url(#b)" xlink:href="#a" />
        </g>
        <path fill="url(#c)" d="M204.310421 148.137741L208 157.338843h-9.223947L195.086475 167h-79.78714l5.995565-9.661157h67.796009l3.689579-9.201102h11.529933zM155.423503 0l47.042129 141.236915H187.24612l-4.611974 9.661157h-10.146341l8.301552-19.322314h9.223947L148.505543 8.74104683h-13.83592L104.230599 51.0661157V28.9834711C76.8082689 65.4811754 63.2669123 83.7300275 63.6065286 83.7300275l99.4641494.16811c.277567.1952096-19.489526 27.8249995-59.301277 82.8893695V140.77686L84.3991131 167H12.9135255l-3.68957872-9.661157H0l3.68957871-9.201102H15.2195122l3.6895787 9.201102h60.4168515l33.2062086-41.404959v21.835083l32.151974-44.8378375c-68.5698573-.0350237-102.9049307-.085401-103.0052204-.1511318C41.3950716 92.5939707 65.0128203 61.6673048 112.532151 0v23.0027548L128.21286 0h27.210643zM5.53436807 141.236915L52.5764967 0h35.5121951l7.3791574 8.74104683H59.4944568L17.9866962 131.575758h9.2239468l8.3015521 19.322314H25.3658537l-4.6119734-9.661157H5.53436807z" />
    </g>
</svg>