<svg xmlns="http://www.w3.org/2000/svg" width="12" height="12">
    <path fill="#D8A75B" fill-rule="nonzero" d="M4.75 7H.5C.22385763 7 0 6.77614237 0 6.5v-1c0-.27614237.22385763-.5.5-.5h4.25c.13807119 0 .25-.11192881.25-.25V.5c0-.27614237.22385763-.5.5-.5h1c.27614237 0 .5.22385763.5.5v4.25c0 .13807119.11192881.25.25.25h4.25c.2761424 0 .5.22385763.5.5v1c0 .27614237-.2238576.5-.5.5H7.25c-.13807119 0-.25.11192881-.25.25v4.25c0 .2761424-.22385763.5-.5.5h-1c-.27614237 0-.5-.2238576-.5-.5V7.25C5 7.11192881 4.88807119 7 4.75 7z" />
</svg>