<svg xmlns="http://www.w3.org/2000/svg" width="16" height="16">
    <g id="Symbols" fill="none" fill-rule="evenodd">
        <g id="Icon-/-16px-/-Search" fill="#D8A75B">
            <path id="Search" d="M10.6666667 6.76923884c0 2.37499717-1.79464289 4.30768716-4.00000003 4.30768716-2.20535715 0-4-1.93268999-4-4.30768716 0-2.37499717 1.79464285-4.30768717 4-4.30768717 2.20535714 0 4.00000003 1.93269 4.00000003 4.30768717zM16 14.7692293c0-.3269227-.1346154-.64423-.3557692-.8653836l-3.298077-3.298073c.7788462-1.12499863 1.1923077-2.47115087 1.1923077-3.83653386 0-3.74038016-3.0288461-6.7692227-6.76923073-6.7692227C3.02884615.00001614 0 3.02885868 0 6.76923884 0 10.509619 3.02884615 13.5384615 6.76923077 13.5384615c1.36538461 0 2.71153846-.413461 3.83653843-1.1923062l3.298077 3.2884576c.2211538.2307689.5384615.3653842.8653846.3653842.6730769 0 1.2307692-.5576917 1.2307692-1.2307678z" />
        </g>
    </g>
</svg>