<svg width="34px" height="20px" viewBox="0 0 34 20" version="1.1" xmlns="http://www.w3.org/2000/svg" xmlns:xlink="http://www.w3.org/1999/xlink">
    <defs>
        <linearGradient x1="49.990769%" y1="105.300377%" x2="49.990769%" y2="0.0960445183%" id="linearGradient-1">
            <stop stop-color="#67502D" offset="0%"></stop>
            <stop stop-color="#D8A75B" offset="99.9815245%"></stop>
        </linearGradient>
        <linearGradient x1="50.0090227%" y1="115.25472%" x2="50.0090227%" y2="-13.2957708%" id="linearGradient-2">
            <stop stop-color="#67502D" offset="0%"></stop>
            <stop stop-color="#D8A75B" offset="99.9815245%"></stop>
        </linearGradient>
    </defs>
    <g id="Assets" stroke="none" stroke-width="1" fill="none" fill-rule="evenodd">
        <g id="General-Icons" transform="translate(-14.000000, -132.000000)">
            <g id="Group" transform="translate(14.000000, 132.000000)">
                <rect id="Rectangle-Copy-2" fill="#454F51" x="0" y="9.57106781" width="16" height="1"></rect>
                <g id="Icon-/-20px-/-Rounded-Right-Arrow" transform="translate(14.000000, 0.000000)">
                    <g>
                        <circle id="Oval" stroke="url(#linearGradient-1)" stroke-width="1.5" fill="#192128" cx="10" cy="10" r="9.25"></circle>
                        <path d="M7.27385852,15.7450308 C7.65624623,16.0893213 8.23686953,16.0893213 8.61925725,15.7450308 L15,10 L15,10 L8.61925725,4.25496922 C8.23686953,3.9106787 7.65624623,3.9106787 7.27385852,4.25496922 C6.93935153,4.55614935 6.91233478,5.07147557 7.21351491,5.40598256 C7.23256183,5.42713711 7.25270397,5.44727925 7.27385852,5.46632617 L12.3092025,10 L12.3092025,10 L7.27385852,14.5336738 C6.93935153,14.834854 6.91233478,15.3501802 7.21351491,15.6846872 C7.23256183,15.7058417 7.25270397,15.7259839 7.27385852,15.7450308 Z" id="Path-2-Copy" fill="url(#linearGradient-2)" fill-rule="nonzero"></path>
                    </g>
                </g>
            </g>
        </g>
    </g>
</svg>