<?xml version="1.0" encoding="UTF-8"?>
<svg width="20px" height="20px" viewBox="0 0 20 20" version="1.1" xmlns="http://www.w3.org/2000/svg" xmlns:xlink="http://www.w3.org/1999/xlink">
    <!-- Generator: Sketch 57.1 (83088) - https://sketch.com -->
    <title>Brawler</title>
    <desc>Created with Sketch.</desc>
    <g id="Brawler" stroke="none" stroke-width="1" fill="none" fill-rule="evenodd">
        <path d="M14.3316129,19.5561032 C12.9845094,19.2740426 11.858069,18.8392057 10.9522581,18.2515795 C10.0464471,17.6639532 9.77935298,17.1899419 10.1509677,16.8295311 C10.2129035,16.766851 10.6464476,16.7472637 11.4516129,16.7707688 C12.2567782,16.7942738 13.193543,16.8530356 14.2619355,16.9470558 C16.0890414,17.1194261 17.1961271,17.2878764 17.5832258,17.4524118 C17.9703245,17.6169471 18.163871,17.9891048 18.163871,18.568896 C18.163871,19.3994078 17.9664536,19.8655843 17.5716129,19.9674395 C17.1767722,20.0692947 16.096783,19.932184 14.3316129,19.5561032 Z M2.13806452,13.2802864 C1.99870898,12.9198757 1.84774275,12.3361757 1.68516129,11.529169 C1.52257983,10.7221623 1.39483917,9.94258987 1.30193548,9.1904283 L1,6.44035129 L12.4735484,0 L19,2.04492906 L18.8374194,5.59417375 C18.7909675,6.56571578 18.7212908,7.67043652 18.6283871,8.90836912 C18.5354834,10.1463017 18.450323,11.1413339 18.3729032,11.8934954 L18.0941935,14.6905823 L16.2129032,14.5260478 C15.3458021,14.4476976 14.7845174,14.2831648 14.5290323,14.0324442 C14.2735471,13.7817237 14.006453,13.1079224 13.7277419,12.0110201 L13.1006452,9.66052693 L13.0541935,12.1755546 C13.0232257,13.3821472 12.9419361,14.095123 12.8103226,14.3145034 C12.678709,14.5338839 12.2722615,14.604398 11.5909677,14.5260478 C11.0025777,14.4633677 10.5845174,14.2753301 10.3367742,13.9619294 C10.089031,13.6485288 9.84129156,12.9982322 9.59354839,12.0110201 L8.96645161,9.66052693 L8.92,12.1285448 C8.8890321,13.3351373 8.80000074,14.0520305 8.65290323,14.279246 C8.50580572,14.5064615 8.06064888,14.6200675 7.31741935,14.6200675 C6.62064168,14.6200675 6.17161391,14.5103789 5.97032258,14.2909985 C5.76903125,14.071618 5.59096852,13.4840006 5.43612903,12.5281286 C5.20386981,11.0551455 4.96774314,10.2873254 4.72774194,10.2246453 C4.48774074,10.1619652 4.44516052,10.8436014 4.6,12.2695744 C4.72387159,13.3351366 4.7393553,13.9932681 4.64645161,14.2439886 C4.55354792,14.4947091 4.25161546,14.6200675 3.74064516,14.6200675 C3.38451435,14.6200675 3.06709817,14.5064615 2.7883871,14.279246 C2.50967603,14.0520305 2.292904,13.7190473 2.13806452,13.2802864 Z" id="Brawler-Copy" fill="#000000" fill-rule="nonzero"></path>
    </g>
</svg>